<svg xmlns="http://www.w3.org/2000/svg" fill="none" viewBox="0 0 159 32"><path fill="#EDE3D9" d="M.953 2.656H8.25c.77 0 1.52.14 2.25.422a5.28 5.28 0 0 1 1.969 1.281c.583.573 1.047 1.302 1.39 2.188.344.885.516 1.937.516 3.156 0 1.198-.198 2.235-.594 3.11-.396.864-.911 1.583-1.547 2.156a6.27 6.27 0 0 1-2.14 1.265c-.802.271-1.62.407-2.453.407H5.734v4.765c0 .302.021.615.063.938.042.281.083.578.125.89.042.302.114.568.219.797H.984c.105-.26.188-.536.25-.828.073-.302.13-.588.172-.86.042-.301.063-.614.063-.937V5.281c0-.26-.021-.526-.063-.797-.041-.24-.093-.515-.156-.828a5.677 5.677 0 0 0-.297-1ZM5.734 13.25h1.5c.344 0 .683-.063 1.016-.188.344-.135.646-.338.906-.609.271-.281.49-.646.656-1.094.178-.447.266-.99.266-1.625 0-.406-.041-.828-.125-1.265A3.643 3.643 0 0 0 9.5 7.266a2.673 2.673 0 0 0-.813-.891c-.333-.24-.744-.36-1.234-.36H5.734v7.235Z"/><path fill="#E61004" d="M27.73 7.105c2.222 0 4.298-1.037 5.818-.584 3.257.972 5.216 3.53 5.217 8.052 0 6.632-3.53 12.427-10.513 12.427C21.269 27 17 22.337 17 15.705c0-4.786 2.224-7.612 6.086-8.815 1.49-.463 2.701.215 4.645.215Z"/><g filter="url(#a)"><path fill="#177721" d="M18.402 2.945c.031.407.001.658.163 1.032 1.08 2.498 6.115 4.208 8.515 3.719 2.084 0 5.274-1.118 7.422-1.584.312-.067.482-.132.78-.246.646-.248.997-.44 1.559-.845.492-.354.793-.553 1.151-1.044.504-.69 1.79-1.93 1.908-2.674.04-.253.203-.501 0-.657-.155-.12-.309-.039-.5 0-.418.084-.873.657-.873.657s-1.22 1.559-2.257 2.24c-.28.185-.437.297-.744.434-1.166.522-2.021-.272-3.269 0l-.02.005c-.654.142-1.044.227-1.632.558-.442.25-.692.411-1.035.786-.178.195-.162.635-.407.54-.369-.143-.308-1.02-.407-1.326-.351-1.084.912-2.197.035-2.92-.194-.16-.315-.259-.559-.317-.203-.049-.34-.076-.535 0-.178.069-.243.176-.372.317-.378.41-.386.787-.535 1.325-.359 1.288 1.323 3.28 0 3.425a1.727 1.727 0 0 1-.373 0c-.922-.07-1.168-.863-1.989-1.29-.602-.313-.92-.61-1.594-.692-.288-.035-.454.02-.744 0-.703-.047-1.165-.026-1.757-.41-.29-.189-.454-.315-.651-.599-.174-.25-.224-.424-.314-.715-.232-.753.24-1.268 0-2.018-.083-.258-.023-.551-.28-.633 0 0-.173-.029-.279 0-.356.094-.17.552-.244.914-.16.775-.223 1.23-.163 2.018Z"/></g><path fill="#EDE3D9" d="M42.953 2.594h4.078L52.141 12l4.906-9.406h4.062c-.125.26-.219.547-.281.86-.052.301-.1.588-.14.858a7.321 7.321 0 0 0-.063.938v16.125c0 .302.02.599.062.89.042.261.089.542.14.844.053.292.147.589.282.891h-5.094c.105-.24.188-.505.25-.797.073-.302.13-.588.172-.86.042-.322.063-.645.063-.968V11.359l-4.485 8.25-4.578-8.156v9.922c0 .302.021.599.063.89.041.261.093.547.156.86.073.302.172.594.297.875h-4.969c.125-.26.219-.537.281-.828a9.97 9.97 0 0 0 .172-.875 6.75 6.75 0 0 0 .063-.922V5.25c0-.344-.021-.688-.063-1.031a8.97 8.97 0 0 0-.172-.86 2.453 2.453 0 0 0-.312-.765Zm19.781 10.594c0-1.532.23-2.959.688-4.282.458-1.333 1.099-2.484 1.922-3.453a9.11 9.11 0 0 1 2.89-2.281 8.054 8.054 0 0 1 3.625-.828c1.469 0 2.74.323 3.813.969a8.596 8.596 0 0 1 2.703 2.53A11.013 11.013 0 0 1 80 9.344c.354 1.303.531 2.605.531 3.907 0 1.323-.188 2.646-.563 3.969a11.669 11.669 0 0 1-1.687 3.578 8.958 8.958 0 0 1-2.797 2.578c-1.114.656-2.422.984-3.922.984-1.468 0-2.755-.333-3.86-1a9.175 9.175 0 0 1-2.75-2.625 12.54 12.54 0 0 1-1.655-3.609 14.385 14.385 0 0 1-.563-3.938Zm4.422-.032c0 .656.078 1.401.234 2.235.157.833.422 1.62.797 2.359.375.73.854 1.349 1.438 1.86.594.5 1.307.75 2.14.75.73 0 1.365-.193 1.907-.579.541-.385.99-.89 1.343-1.515a7.99 7.99 0 0 0 .829-2.125c.197-.792.296-1.604.296-2.438 0-.656-.083-1.406-.25-2.25a9.698 9.698 0 0 0-.765-2.406 5.57 5.57 0 0 0-1.406-1.922c-.584-.52-1.292-.781-2.125-.781-.855 0-1.563.229-2.125.687a5.16 5.16 0 0 0-1.36 1.719 8.067 8.067 0 0 0-.734 2.203 12.031 12.031 0 0 0-.219 2.203ZM82.078 24c.125-.24.219-.505.281-.797.073-.302.13-.588.172-.86.042-.322.063-.655.063-1V5.25c0-.344-.021-.688-.063-1.031a12.233 12.233 0 0 0-.156-.89 2.31 2.31 0 0 0-.266-.735h10.625l.703 4.547a5.153 5.153 0 0 0-.89-.5 3.058 3.058 0 0 0-.766-.266 4.505 4.505 0 0 0-.766-.11H86.89v5.423h2.875c.282 0 .558-.037.829-.11.24-.041.494-.11.765-.203.281-.094.547-.23.797-.406v5a3.248 3.248 0 0 0-.797-.375 4.938 4.938 0 0 0-.765-.203 3.81 3.81 0 0 0-.829-.094H86.89v6.047c0 .343.021.677.063 1 .041.281.094.567.156.86.063.29.156.556.281.796h-5.312Zm12.219-10.813c0-1.53.229-2.958.687-4.28.459-1.334 1.1-2.485 1.922-3.454a9.11 9.11 0 0 1 2.89-2.281c1.115-.552 2.324-.828 3.626-.828 1.468 0 2.739.323 3.812.969a8.59 8.59 0 0 1 2.703 2.53 11.01 11.01 0 0 1 1.625 3.5c.354 1.303.532 2.605.532 3.907 0 1.323-.188 2.646-.563 3.969a11.668 11.668 0 0 1-1.687 3.578 8.963 8.963 0 0 1-2.797 2.578c-1.115.656-2.422.984-3.922.984-1.469 0-2.755-.333-3.86-1a9.175 9.175 0 0 1-2.75-2.625 12.54 12.54 0 0 1-1.656-3.609 14.385 14.385 0 0 1-.562-3.938Zm4.422-.03c0 .655.078 1.4.234 2.234.156.833.422 1.62.797 2.359.375.73.854 1.349 1.437 1.86.594.5 1.308.75 2.141.75.729 0 1.364-.193 1.906-.579a4.62 4.62 0 0 0 1.344-1.515 7.993 7.993 0 0 0 .828-2.125c.198-.792.297-1.604.297-2.438 0-.656-.083-1.406-.25-2.25a9.69 9.69 0 0 0-.766-2.406 5.557 5.557 0 0 0-1.406-1.922c-.583-.52-1.292-.781-2.125-.781-.854 0-1.562.229-2.125.687a5.162 5.162 0 0 0-1.36 1.719 8.067 8.067 0 0 0-.734 2.203 12.031 12.031 0 0 0-.218 2.203Zm14.609.468c0-1.625.234-3.125.703-4.5.469-1.385 1.115-2.589 1.938-3.61a8.889 8.889 0 0 1 2.906-2.406c1.125-.583 2.349-.875 3.672-.875.531.021 1.073.079 1.625.172.489.084 1.02.219 1.593.406a7.521 7.521 0 0 1 1.704.766v5.188a4.306 4.306 0 0 0-1.485-1.329 7.775 7.775 0 0 0-1.719-.687 9.305 9.305 0 0 0-2.015-.281c-.813 0-1.511.229-2.094.687a5.46 5.46 0 0 0-1.437 1.735 8.467 8.467 0 0 0-.829 2.218 10.5 10.5 0 0 0-.25 2.172c0 .656.079 1.38.235 2.172.166.792.432 1.537.797 2.235.364.687.828 1.26 1.39 1.718.563.459 1.25.688 2.063.688a7.103 7.103 0 0 0 2.078-.375c.573-.188 1.167-.485 1.781-.89.625-.418 1.151-1.006 1.578-1.767v5.313c-.531.49-1.13.865-1.797 1.125-.656.25-1.281.438-1.875.563a12.25 12.25 0 0 1-2.109.25c-1.448 0-2.703-.318-3.766-.954a8.49 8.49 0 0 1-2.625-2.468 11.239 11.239 0 0 1-1.562-3.438c-.333-1.27-.5-2.547-.5-3.828Zm15.969-11h5.187a6.312 6.312 0 0 0-.219.984c-.041.302-.088.573-.14.813a5.602 5.602 0 0 0-.063.828v11.672c0 .937.183 1.724.547 2.36.365.624 1.068.937 2.11.937 1.812 0 2.718-1.078 2.718-3.235V5.25c0-.281-.021-.568-.062-.86-.042-.26-.094-.541-.156-.843a4.981 4.981 0 0 0-.282-.922h5.172a6.312 6.312 0 0 0-.219.984c-.041.302-.083.573-.125.813a5.738 5.738 0 0 0-.062.828v11.734c0 2.24-.599 4.006-1.797 5.297-1.198 1.292-2.927 1.938-5.187 1.938-2.344 0-4.089-.63-5.235-1.89-1.135-1.272-1.703-3.037-1.703-5.298V5.25c0-.281-.021-.557-.062-.828-.042-.24-.099-.51-.172-.813-.063-.312-.146-.64-.25-.984Zm16.5 19.75v-4.969c.51.75 1.041 1.328 1.593 1.735.563.406 1.089.703 1.579.89.552.24 1.104.37 1.656.39 1.875 0 2.817-.77 2.828-2.312 0-.385-.12-.734-.359-1.047a4.045 4.045 0 0 0-.922-.906 11.71 11.71 0 0 0-1.297-.843c-.479-.271-.953-.553-1.422-.844-1.406-.875-2.359-1.818-2.859-2.828-.49-1.021-.735-2.151-.735-3.391 0-.813.151-1.573.453-2.281a5.519 5.519 0 0 1 1.313-1.89c.573-.543 1.276-.975 2.109-1.298.833-.323 1.792-.484 2.875-.484.511.02 1.037.078 1.578.172.448.083.917.198 1.407.344.489.135.947.348 1.375.64V8.61c-.365-.552-.797-.979-1.297-1.28a6.927 6.927 0 0 0-1.422-.673 6.223 6.223 0 0 0-1.641-.281c-.656 0-1.208.172-1.656.516-.448.333-.682.854-.703 1.562 0 .281.041.537.125.766.083.229.224.463.422.703.208.229.494.474.859.734s.813.547 1.344.86c.531.322 1.073.656 1.625 1a7.226 7.226 0 0 1 1.515 1.234 5.77 5.77 0 0 1 1.094 1.719c.292.656.438 1.453.438 2.39 0 1-.172 1.901-.516 2.703a5.888 5.888 0 0 1-1.391 2.047 5.997 5.997 0 0 1-2.078 1.297 7.165 7.165 0 0 1-2.547.453 7.68 7.68 0 0 1-2.015-.25 9.68 9.68 0 0 1-1.61-.547 7.373 7.373 0 0 1-1.14-.656c-.302-.229-.495-.406-.578-.531Z"/><defs><filter id="a" width="29.62" height="15.78" x="14.38" y="0" color-interpolation-filters="sRGB" filterUnits="userSpaceOnUse"><feFlood flood-opacity="0" result="BackgroundImageFix"/><feColorMatrix in="SourceAlpha" result="hardAlpha" values="0 0 0 0 0 0 0 0 0 0 0 0 0 0 0 0 0 0 127 0"/><feOffset dy="4"/><feGaussianBlur stdDeviation="2"/><feComposite in2="hardAlpha" operator="out"/><feColorMatrix values="0 0 0 0 0 0 0 0 0 0 0 0 0 0 0 0 0 0 0.25 0"/><feBlend in2="BackgroundImageFix" result="effect1_dropShadow_83_660"/><feBlend in="SourceGraphic" in2="effect1_dropShadow_83_660" result="shape"/></filter></defs></svg>