<svg xmlns="http://www.w3.org/2000/svg" fill="none" viewBox="0 0 48 58"><path fill="#E61004" d="M23.327 13.777c4.83 0 9.342-2.267 12.648-1.276 7.08 2.123 11.34 7.715 11.34 17.595 0 14.492-7.674 27.154-22.854 27.154S0 47.06 0 32.57c0-10.46 4.834-16.634 13.23-19.261 3.238-1.013 5.872.469 10.097.469Z"/><path fill="#177721" d="M4.044 5.678c.062.785.002 1.269.324 1.99 2.148 4.816 12.163 8.114 16.937 7.17 4.143 0 10.488-2.154 14.761-3.053.62-.13.957-.254 1.55-.475 1.285-.478 1.983-.847 3.1-1.628.98-.684 1.58-1.067 2.291-2.013 1.002-1.332 3.56-3.723 3.795-5.157.08-.488.403-.966 0-1.267-.309-.23-.614-.074-.995 0-.83.163-1.736 1.267-1.736 1.267s-2.426 3.005-4.488 4.32c-.56.357-.87.572-1.48.837-2.32 1.005-4.021-.525-6.502 0l-.04.008c-1.3.275-2.076.439-3.246 1.077-.88.48-1.378.793-2.06 1.516-.353.376-.32 1.224-.809 1.04-.733-.276-.613-1.965-.81-2.556-.697-2.091 1.816-4.236.07-5.631-.385-.308-.626-.499-1.11-.611-.405-.094-.677-.146-1.065 0-.354.133-.483.34-.74.61-.752.791-.767 1.52-1.065 2.556-.713 2.484 2.632 6.325 0 6.605-.287.03-.452.021-.74 0-1.834-.135-2.324-1.664-3.957-2.488-1.197-.604-1.83-1.175-3.17-1.335-.573-.068-.903.038-1.48 0-1.398-.09-2.318-.05-3.494-.791-.575-.363-.903-.606-1.296-1.154-.346-.482-.445-.817-.624-1.38-.462-1.45.478-2.443 0-3.89C5.8.75 5.92.182 5.409.025c0 0-.345-.055-.555 0-.708.182-.337 1.065-.486 1.763-.317 1.493-.443 2.37-.324 3.89Z"/></svg>