<svg xmlns="http://www.w3.org/2000/svg" fill="none" viewBox="0 0 55 60"><path fill="#E61004" d="M24.327 16.026c4.83 0 9.342-2.266 12.648-1.275 7.08 2.123 11.34 7.714 11.34 17.595 0 14.492-7.674 27.154-22.854 27.154S1 49.31 1 34.818c0-10.458 4.834-16.633 13.23-19.26 3.238-1.013 5.872.468 10.097.468Z"/><g filter="url(#a)"><path fill="#177721" d="M4.048 6.936c.068.889.003 1.437.355 2.255 2.347 5.457 13.294 9.196 18.511 8.126 4.529 0 11.465-2.442 16.135-3.46.678-.148 1.046-.289 1.694-.539 1.405-.541 2.167-.96 3.39-1.845 1.07-.776 1.724-1.209 2.503-2.282 1.095-1.51 3.89-4.219 4.147-5.844.088-.554.44-1.095 0-1.435-.337-.261-.67-.085-1.087 0-.908.184-1.897 1.435-1.897 1.435s-2.653 3.406-4.906 4.896c-.611.404-.95.648-1.619.948-2.535 1.14-4.394-.594-7.106 0l-.043.01c-1.421.311-2.269.497-3.548 1.22-.961.545-1.506.898-2.25 1.718-.388.426-.352 1.388-.886 1.18-.8-.314-.67-2.228-.885-2.897-.763-2.371 1.984-4.802.076-6.383-.421-.349-.684-.565-1.214-.692-.442-.106-.74-.165-1.163 0-.387.15-.528.385-.81.692-.82.896-.837 1.721-1.163 2.897-.78 2.815 2.877 7.167 0 7.485a3.73 3.73 0 0 1-.81 0c-2.004-.153-2.539-1.886-4.324-2.82-1.309-.685-2.001-1.332-3.464-1.513-.628-.077-.988.043-1.619 0-1.527-.102-2.533-.057-3.818-.897-.63-.41-.988-.687-1.417-1.307-.378-.547-.487-.926-.682-1.564-.505-1.644.522-2.77 0-4.408-.18-.563-.05-1.205-.607-1.385 0 0-.378-.061-.607 0-.774.208-.369 1.208-.531 2-.348 1.691-.485 2.686-.354 4.409Z"/></g><defs><filter id="a" width="55" height="25" x="0" y=".5" color-interpolation-filters="sRGB" filterUnits="userSpaceOnUse"><feFlood flood-opacity="0" result="BackgroundImageFix"/><feColorMatrix in="SourceAlpha" result="hardAlpha" values="0 0 0 0 0 0 0 0 0 0 0 0 0 0 0 0 0 0 127 0"/><feOffset dy="4"/><feGaussianBlur stdDeviation="2"/><feComposite in2="hardAlpha" operator="out"/><feColorMatrix values="0 0 0 0 0 0 0 0 0 0 0 0 0 0 0 0 0 0 0.25 0"/><feBlend in2="BackgroundImageFix" result="effect1_dropShadow_21_361"/><feBlend in="SourceGraphic" in2="effect1_dropShadow_21_361" result="shape"/></filter></defs></svg>